REM DIRINDEX 1\3,1\4,1\5,1\6,1\2\7,1\2\8,1\2\9,1\10
REM DIRNAME folder01,folder02,folder03,folder04,folder05,folder06,folder07,folder08,folder09,folder10
TITLE ""
FILE "1-15 Level 1-133-140.mp3" MP3
  TRACK 01 AUDIO
    TITLE "0:"
    INDEX 01 00:00:00
  TRACK 02 AUDIO
    TITLE "7:cjc056_0423"
    INDEX 01 00:00:05
  TRACK 03 AUDIO
    TITLE "0:"
    INDEX 01 00:01:07
  TRACK 04 AUDIO
    TITLE "8:cjc056_0424"
    INDEX 01 00:01:21
  TRACK 05 AUDIO
    TITLE "0:"
    INDEX 01 00:02:32
  TRACK 06 AUDIO
    TITLE "9:cjc056_0425"
    INDEX 01 00:02:45
  TRACK 07 AUDIO
    TITLE "0:"
    INDEX 01 00:04:21
  TRACK 08 AUDIO
    TITLE "7:cjc056_0426"
    INDEX 01 00:04:70
  TRACK 09 AUDIO
    TITLE "0:"
    INDEX 01 00:05:71
  TRACK 10 AUDIO
    TITLE "8:cjc056_0427"
    INDEX 01 00:06:10
  TRACK 11 AUDIO
    TITLE "0:"
    INDEX 01 00:07:13
  TRACK 12 AUDIO
    TITLE "9:cjc056_0428"
    INDEX 01 00:07:25
  TRACK 13 AUDIO
    TITLE "0:"
    INDEX 01 00:08:52
  TRACK 14 AUDIO
    TITLE "7:cjc056_0429"
    INDEX 01 00:09:28
  TRACK 15 AUDIO
    TITLE "0:"
    INDEX 01 00:10:37
  TRACK 16 AUDIO
    TITLE "8:cjc056_0430"
    INDEX 01 00:10:51
  TRACK 17 AUDIO
    TITLE "0:"
    INDEX 01 00:11:42
  TRACK 18 AUDIO
    TITLE "9:cjc056_0431"
    INDEX 01 00:11:56
  TRACK 19 AUDIO
    TITLE "0:"
    INDEX 01 00:13:10
  TRACK 20 AUDIO
    TITLE "7:cjc056_0432"
    INDEX 01 00:13:61
  TRACK 21 AUDIO
    TITLE "0:"
    INDEX 01 00:14:58
  TRACK 22 AUDIO
    TITLE "8:cjc056_0433"
    INDEX 01 00:14:72
  TRACK 23 AUDIO
    TITLE "0:"
    INDEX 01 00:16:73
  TRACK 24 AUDIO
    TITLE "9:cjc056_0434"
    INDEX 01 00:17:12
  TRACK 25 AUDIO
    TITLE "0:"
    INDEX 01 00:19:44
  TRACK 26 AUDIO
    TITLE "8:cjc056_0435"
    INDEX 01 00:19:73
  TRACK 27 AUDIO
    TITLE "0:"
    INDEX 01 00:21:33
  TRACK 28 AUDIO
    TITLE "9:cjc056_0436"
    INDEX 01 00:21:45
  TRACK 29 AUDIO
    TITLE "0:"
    INDEX 01 00:23:26
  TRACK 30 AUDIO
    TITLE "8:cjc056_0437"
    INDEX 01 00:23:53
  TRACK 31 AUDIO
    TITLE "0:"
    INDEX 01 00:25:39
  TRACK 32 AUDIO
    TITLE "9:cjc056_0438"
    INDEX 01 00:25:50
  TRACK 33 AUDIO
    TITLE "0:"
    INDEX 01 00:27:59
  TRACK 34 AUDIO
    TITLE "7:cjc056_0439"
    INDEX 01 00:28:39
  TRACK 35 AUDIO
    TITLE "0:"
    INDEX 01 00:29:36
  TRACK 36 AUDIO
    TITLE "8:cjc056_0440"
    INDEX 01 00:29:50
  TRACK 37 AUDIO
    TITLE "0:"
    INDEX 01 00:31:00
  TRACK 38 AUDIO
    TITLE "9:cjc056_0441"
    INDEX 01 00:31:14
  TRACK 39 AUDIO
    TITLE "0:"
    INDEX 01 00:32:68
  TRACK 40 AUDIO
    TITLE "8:cjc056_0442"
    INDEX 01 00:33:21
  TRACK 41 AUDIO
    TITLE "0:"
    INDEX 01 00:34:55
  TRACK 42 AUDIO
    TITLE "9:cjc056_0443"
    INDEX 01 00:34:65
  TRACK 43 AUDIO
    TITLE "0:"
    INDEX 01 00:36:72
  TRACK 44 AUDIO
    TITLE "7:cjc056_0444"
    INDEX 01 00:37:48
  TRACK 45 AUDIO
    TITLE "0:"
    INDEX 01 00:38:45
  TRACK 46 AUDIO
    TITLE "8:cjc056_0445"
    INDEX 01 00:38:57
  TRACK 47 AUDIO
    TITLE "0:"
    INDEX 01 00:40:52
  TRACK 48 AUDIO
    TITLE "9:cjc056_0446"
    INDEX 01 00:40:66
  TRACK 49 AUDIO
    TITLE "0:"
    INDEX 01 00:43:31
  TRACK 50 AUDIO
    TITLE "8:cjc056_0447"
    INDEX 01 00:43:56
  TRACK 51 AUDIO
    TITLE "0:"
    INDEX 01 00:45:24
  TRACK 52 AUDIO
    TITLE "9:cjc056_0448"
    INDEX 01 00:45:39
  TRACK 53 AUDIO
    TITLE "0:"
    INDEX 01 00:47:13
  TRACK 54 AUDIO
    TITLE "7:cjc056_0449"
    INDEX 01 00:47:60
  TRACK 55 AUDIO
    TITLE "0:"
    INDEX 01 00:48:67
  TRACK 56 AUDIO
    TITLE "8:cjc056_0450"
    INDEX 01 00:49:06
  TRACK 57 AUDIO
    TITLE "0:"
    INDEX 01 00:50:60
  TRACK 58 AUDIO
    TITLE "9:cjc056_0451"
    INDEX 01 00:50:74
  TRACK 59 AUDIO
    TITLE "0:"
    INDEX 01 00:53:41
  TRACK 60 AUDIO
    TITLE "8:cjc056_0452"
    INDEX 01 00:53:66
  TRACK 61 AUDIO
    TITLE "0:"
    INDEX 01 00:55:20
  TRACK 62 AUDIO
    TITLE "9:cjc056_0453"
    INDEX 01 00:55:34
  TRACK 63 AUDIO
    TITLE "0:"
    INDEX 01 00:57:54
  TRACK 64 AUDIO
    TITLE "8:cjc056_0454"
    INDEX 01 00:58:05
  TRACK 65 AUDIO
    TITLE "0:"
    INDEX 01 00:59:49
  TRACK 66 AUDIO
    TITLE "9:cjc056_0455"
    INDEX 01 00:59:63
  TRACK 67 AUDIO
    TITLE "0:"
    INDEX 01 01:02:06
  TRACK 68 AUDIO
    TITLE "7:cjc056_0456"
    INDEX 01 01:02:59
  TRACK 69 AUDIO
    TITLE "0:"
    INDEX 01 01:03:61
  TRACK 70 AUDIO
    TITLE "8:cjc056_0457"
    INDEX 01 01:04:00
  TRACK 71 AUDIO
    TITLE "0:"
    INDEX 01 01:05:28
  TRACK 72 AUDIO
    TITLE "9:cjc056_0458"
    INDEX 01 01:05:40
  TRACK 73 AUDIO
    TITLE "0:"
    INDEX 01 01:07:27
